<svg width="480" height="99" viewBox="0 0 480 99" fill="none" xmlns="http://www.w3.org/2000/svg">
<path d="M74.7197 50.7161H73.9648L51.1928 2.63149C50.5637 1.12492 49.054 0.246094 47.4184 0.246094H4.89397C2.62935 0.246094 0.742188 2.12931 0.742188 4.38916V94.6577C0.742188 96.9175 2.62935 98.8008 4.89397 98.8008H35.4663C37.7309 98.8008 39.6181 96.9175 39.6181 94.6577V47.9541H40.373L64.7806 96.5409C65.5354 97.9219 66.9193 98.8008 68.4291 98.8008H109.444C111.708 98.8008 113.596 96.9175 113.596 94.6577V4.38916C113.596 2.12931 111.708 0.246094 109.444 0.246094H78.8714C76.6068 0.246094 74.7197 2.12931 74.7197 4.38916V50.7161Z" fill="black"/>
<path d="M223.055 55.6081C224.439 55.6081 225.446 54.4782 225.446 53.2227V45.941C225.446 44.56 224.314 43.5556 223.055 43.5556H168.453V29.6198H225.572C227.836 29.6198 229.724 27.7366 229.724 25.4768V4.51036C229.724 2.25051 227.836 0.367316 225.572 0.367316H130.458C128.193 0.367316 126.306 2.25051 126.306 4.51036V94.9044C126.306 97.1643 128.193 98.922 130.332 98.922H226.075C228.34 98.922 230.227 97.0387 230.227 94.7789V75.068C230.227 72.8081 228.34 70.9249 226.075 70.9249H168.327V55.6081H223.055Z" fill="black"/>
<path d="M356.034 39.2913C356.034 5.0169 336.407 0.246094 310.364 0.246094H247.332C245.067 0.246094 243.18 2.12931 243.18 4.38916V94.6577C243.18 96.9175 245.067 98.8008 247.332 98.8008H281.176C283.44 98.8008 285.327 96.9175 285.327 94.6577V77.2066H292.499C294.763 88.0037 303.444 96.4154 314.516 98.2986C315.774 98.5497 317.158 98.8008 318.667 98.8008H352.008C354.272 98.8008 356.159 96.9175 356.159 94.6577V77.2066C356.159 74.9467 354.272 73.0635 352.008 73.0635H338.42C349.743 68.4183 356.034 58.7512 356.034 39.2913ZM285.201 29.2475H304.199C308.854 29.2475 312.754 32.8884 313.132 37.5336C314.012 48.3307 310.616 51.9716 301.305 52.2227H285.201V29.2475Z" fill="black"/>
<path d="M479.708 48.9585C479.708 13.1775 462.346 0.246094 428.754 0.246094H373.02C370.755 0.246094 368.868 2.12931 368.868 4.38916V94.1555C368.868 96.792 371.007 98.8008 373.523 98.8008H428.754C462.472 98.8008 479.708 85.8694 479.708 50.0884C479.708 49.8373 479.708 49.7117 479.708 49.5862C479.708 49.3351 479.708 49.2096 479.708 48.9585ZM421.583 68.5438H410.26V30.503H421.583C434.164 30.503 437.435 37.4081 437.561 49.4606C437.435 61.7643 434.164 68.5438 421.583 68.5438Z" fill="black"/>
<path d="M356.034 39.2913C356.034 5.0169 336.407 0.246094 310.364 0.246094H247.332C245.067 0.246094 243.18 2.12931 243.18 4.38916V94.6577C243.18 96.9175 245.067 98.8008 247.332 98.8008H281.176C283.44 98.8008 285.327 96.9175 285.327 94.6577V77.2066H292.499C294.763 88.0037 303.444 96.4154 314.516 98.2986C315.774 98.5497 317.158 98.8008 318.667 98.8008H352.008C354.272 98.8008 356.159 96.9175 356.159 94.6577V77.2066C356.159 74.9467 354.272 73.0635 352.008 73.0635H338.42C349.743 68.4183 356.034 58.7512 356.034 39.2913ZM285.201 29.2475H304.199C308.854 29.2475 312.754 32.8884 313.132 37.5336C314.012 48.3307 310.616 51.9716 301.305 52.2227H285.201V29.2475Z" fill="black"/>
</svg>
